<?xml version="1.0" encoding="UTF-8" standalone="no"?>
<svg
   xmlns:dc="http://purl.org/dc/elements/1.1/"
   xmlns:cc="http://creativecommons.org/ns#"
   xmlns:rdf="http://www.w3.org/1999/02/22-rdf-syntax-ns#"
   xmlns:svg="http://www.w3.org/2000/svg"
   xmlns="http://www.w3.org/2000/svg"
   xmlns:sodipodi="http://sodipodi.sourceforge.net/DTD/sodipodi-0.dtd"
   xmlns:inkscape="http://www.inkscape.org/namespaces/inkscape"
   width="212.67793mm"
   height="257.07605mm"
   version="1.1"
   id="svg2539"
   sodipodi:docname="b2d.svg"
   inkscape:version="0.92.2 (5c3e80d, 2017-08-06)">
  <metadata
     id="metadata2543">
    <rdf:RDF>
      <cc:Work
         rdf:about="">
        <dc:format>image/svg+xml</dc:format>
        <dc:type
           rdf:resource="http://purl.org/dc/dcmitype/StillImage" />
        <dc:title></dc:title>
      </cc:Work>
    </rdf:RDF>
  </metadata>
  <sodipodi:namedview
     pagecolor="#ffffff"
     bordercolor="#666666"
     borderopacity="1"
     objecttolerance="10"
     gridtolerance="10"
     guidetolerance="10"
     inkscape:pageopacity="0"
     inkscape:pageshadow="2"
     inkscape:window-width="1366"
     inkscape:window-height="749"
     id="namedview2541"
     showgrid="false"
     inkscape:zoom="0.4167418"
     inkscape:cx="341.62338"
     inkscape:cy="445.64003"
     inkscape:window-x="-4"
     inkscape:window-y="-4"
     inkscape:window-maximized="1"
     inkscape:current-layer="g1337"
     inkscape:measure-start="-556.7,909.436"
     inkscape:measure-end="582.2,784.354"
     units="mm" />
  <desc
     id="desc1321">C:\Users\Andreas Reheis\Documents\Laser\b2d\b2d.dxf - scale = 1.000000, origin = (0.000000, 0.000000), method = file</desc>
  <defs
     id="defs1335">
    <marker
       id="DistanceX"
       orient="auto"
       refX="0"
       refY="0"
       style="overflow:visible">
      <path
         d="M 3,-3 -3,3 M 0,-5 V 5"
         style="stroke:#000000;stroke-width:0.5"
         id="path1323"
         inkscape:connector-curvature="0" />
    </marker>
    <pattern
       height="8"
       id="Hatch"
       patternUnits="userSpaceOnUse"
       width="8"
       x="0"
       y="0">
      <path
         d="M8 4 l-4,4"
         linecap="square"
         stroke="#000000"
         stroke-width="0.25"
         id="path1326" />
      <path
         d="M6 2 l-4,4"
         linecap="square"
         stroke="#000000"
         stroke-width="0.25"
         id="path1328" />
      <path
         d="M4 0 l-4,4"
         linecap="square"
         stroke="#000000"
         stroke-width="0.25"
         id="path1330" />
    </pattern>
    <symbol
       id="*MODEL_SPACE" />
    <symbol
       id="*PAPER_SPACE" />
  </defs>
  <g
     inkscape:groupmode="layer"
     inkscape:label="gruen"
     id="g1337"
     style="display:inline"
     transform="translate(697.90999,-621.91466)">
    <path
       id="path1819"
       style="display:inline;fill:none;stroke:#00ff00;stroke-opacity:1"
       d="m -389.07903,800.95955 h -34.01575 v 7.559 h 34.01575 z M -567.13989,663.46374 h 18.89764 v -7.55905 h -3.77953 v -33.49003 h -143.62204 v 234.33069 h 340.15747 V 622.41466 H -514.2265 v 33.49003 h -3.77953 v 7.55905 h 18.89764 v 162.51971 h -68.0315 z m 144.04511,61.30053 v 7.55909 h 34.01575 v -7.55909 z m 34.01575,57.14648 h -34.01575 v 7.559 h 34.01575 z m -94.91125,18.1417 h 30.23622 V 724.4619 h -30.23622 z m 60.8955,-37.1906 v 7.5591 h 34.01575 v -7.5591 z m 0,-11.48969 h 34.01575 v -7.5591 h -34.01575 z m 34.01575,76.19529 v -7.5591 h -34.01575 v 7.5591 z m -280.1081,-164.10371 v 158.74011 h 90.70866 V 663.46374 Z m 181.41732,38.321 v -45.35433 h 37.79528 v 45.35433 z m 107.72173,101.54921 1.17415,-0.901 1.36732,-0.5663 1.46732,-0.1932 1.46732,0.1932 1.36733,0.5663 1.17415,0.901 0.90095,1.1741 0.56637,1.3674 0.19318,1.4673 -0.19318,1.4673 -0.56637,1.3673 -0.90095,1.1742 -1.17415,0.9009 -1.36733,0.5664 -1.46732,0.1932 -1.46732,-0.1932 -1.36732,-0.5664 -1.17415,-0.9009 -0.90096,-1.1742 -0.56636,-1.3673 -0.19318,-1.4673 0.19318,-1.4673 0.56636,-1.3674 z m 1.17415,-29.4815 -1.17415,-0.9009 -0.90096,-1.1742 -0.56636,-1.3673 -0.19318,-1.4673 0.19318,-1.4673 0.56636,-1.3674 0.90096,-1.1741 1.17415,-0.901 1.36732,-0.5663 1.46732,-0.1932 1.46732,0.1932 1.36733,0.5663 1.17415,0.901 0.90095,1.1741 0.56637,1.3674 0.19318,1.4673 -0.19318,1.4673 -0.56637,1.3673 -0.90095,1.1742 -1.17415,0.9009 -1.36733,0.5664 -1.46732,0.1932 -1.46732,-0.1932 z m -2.64147,-22.64239 -0.19318,-1.4673 0.19318,-1.4673 0.56636,-1.3674 0.90096,-1.1741 1.17415,-0.901 1.36732,-0.5663 1.46732,-0.1932 1.46732,0.1932 1.36733,0.5663 1.17415,0.901 0.90095,1.1741 0.56637,1.3674 0.19318,1.4673 -0.19318,1.4673 -0.56637,1.3673 -0.90095,1.1742 -1.17415,0.9009 -1.36733,0.56639 -1.46732,0.1932 -1.46732,-0.1932 -1.36732,-0.56639 -1.17415,-0.9009 -0.90096,-1.1742 z m 1.46732,-16.6585 -0.90096,-1.1742 -0.56636,-1.3673 -0.19318,-1.4673 0.19318,-1.4673 0.56636,-1.36736 0.90096,-1.17415 1.17415,-0.90096 1.36732,-0.56636 1.46732,-0.19318 1.46732,0.19318 1.36733,0.56636 1.17415,0.90096 0.90095,1.17415 0.56637,1.36736 0.19318,1.4673 -0.19318,1.4673 -0.56637,1.3673 -0.90095,1.1742 -1.17415,0.9009 -1.36733,0.5664 -1.46732,0.1932 -1.46732,-0.1932 -1.36732,-0.5664 z m -0.90096,50.75649 0.90096,-1.1741 1.17415,-0.901 1.36732,-0.5663 1.46732,-0.1932 1.46732,0.1932 1.36733,0.5663 1.17415,0.901 0.90095,1.1741 0.56637,1.3674 0.19318,1.4673 -0.19318,1.4673 -0.56637,1.3673 -0.90095,1.1742 -1.17415,0.9009 -1.36733,0.5664 -1.46732,0.1932 -1.46732,-0.1932 -1.36732,-0.5664 -1.17415,-0.9009 -0.90096,-1.1742 -0.56636,-1.3673 -0.19318,-1.4673 0.19318,-1.4673 z m -8.12999,-72.03355 v -7.55905 h -34.01575 v 7.55905 z m -34.01575,-19.04882 h 34.01575 v -7.55905 h -34.01575 z m 43.0467,1.92586 -0.90096,-1.17415 -0.56636,-1.36733 -0.19318,-1.46732 0.19318,-1.46732 0.56636,-1.36732 0.90096,-1.17415 1.17415,-0.90096 1.36732,-0.56636 1.46732,-0.19318 1.46732,0.19318 1.36733,0.56636 1.17415,0.90096 0.90095,1.17415 0.56637,1.36732 0.19318,1.46732 -0.19318,1.46732 -0.56637,1.36733 -0.90095,1.17415 -1.17415,0.90095 -1.36733,0.56637 -1.46732,0.19317 -1.46732,-0.19317 -1.36732,-0.56637 z m 0,11.18241 1.17415,-0.90096 1.36732,-0.56636 1.46732,-0.19318 1.46732,0.19318 1.36733,0.56636 1.17415,0.90096 0.90095,1.17415 0.56637,1.36732 0.19318,1.46732 -0.19318,1.46732 -0.56637,1.36733 -0.90095,1.17415 -1.17415,0.90095 -1.36733,0.56637 -1.46732,0.19318 -1.46732,-0.19318 -1.36732,-0.56637 -1.17415,-0.90095 -0.90096,-1.17415 -0.56636,-1.36733 -0.19318,-1.46732 0.19318,-1.46732 0.56636,-1.36732 z m 0,115.2 1.17415,-0.901 1.36732,-0.5663 1.46732,-0.1932 1.46732,0.1932 1.36733,0.5663 1.17415,0.901 0.90095,1.1741 0.56637,1.3674 0.19318,1.4673 -0.19318,1.4673 -0.56637,1.3673 -0.90095,1.1742 -1.17415,0.9009 -1.36733,0.5664 -1.46732,0.1932 -1.46732,-0.1932 -1.36732,-0.5664 -1.17415,-0.9009 -0.90096,-1.1742 -0.56636,-1.3673 -0.19318,-1.4673 0.19318,-1.4673 0.56636,-1.3674 z"
       inkscape:connector-curvature="0"
       sodipodi:nodetypes="cccccccccccccccccccccccccccccccccccccccccccccccccccccccccccccccccccccccccccccccccccccccccccccccccccccccccccccccccccccccccccccccccccccccccccccccccccccccccccccccccccccccccccccccccccccccccccccccccccccccccccccccccccccccccccccccccccccccccccccccccccccccccccccccccccccccccccccccc" />
    <path
       id="path1963"
       style="display:inline;fill:none;stroke:#00ff00;stroke-opacity:1"
       d="m -336.58871,1358.7092 h -359.05511 v 234.3307 h 359.05511 z"
       inkscape:connector-curvature="0"
       sodipodi:nodetypes="ccccc" />
    <g
       id="g3938"
       transform="translate(1e-5)">
      <path
         transform="translate(-696.14462,658.99585)"
         sodipodi:nodetypes="cccc"
         inkscape:connector-curvature="0"
         id="path3839-8"
         d="m 270.37032,272.59834 v 67.46765 15.46765 61.03563"
         style="display:inline;fill:#ffff00;fill-opacity:1;stroke:#ffff00;stroke-width:1px;stroke-linecap:butt;stroke-linejoin:miter;stroke-opacity:1" />
      <path
         sodipodi:nodetypes="cc"
         inkscape:connector-curvature="0"
         id="path3861"
         d="m -425.53322,1050.7495 h -24.83237"
         style="display:inline;fill:#ffff00;fill-opacity:1;stroke:#ffff00;stroke-width:1px;stroke-linecap:butt;stroke-linejoin:miter;stroke-opacity:1" />
      <g
         aria-label="stellenwert"
         transform="rotate(-90,-18.574385,677.57024)"
         style="font-style:normal;font-variant:normal;font-weight:normal;font-stretch:normal;font-size:13.33333302px;line-height:30px;font-family:'OCR A Extended';-inkscape-font-specification:'OCR A Extended';font-variant-ligatures:normal;font-variant-caps:normal;font-variant-numeric:normal;font-feature-settings:normal;text-align:start;letter-spacing:0px;word-spacing:0px;writing-mode:lr-tb;text-anchor:start;display:inline;fill:#ffff00;fill-opacity:1;stroke:none"
         id="text3869">
        <path
           d="m -392.83645,225.52885 h 2.50651 q 0.58594,0 1.03516,0.35156 0.44922,0.34505 0.44922,0.67709 0,0.23437 -0.16927,0.38411 -0.16276,0.14974 -0.36459,0.14974 -0.26041,0 -0.47526,-0.23438 -0.21484,-0.23437 -0.44921,-0.23437 h -2.47396 q -0.36459,0 -0.36459,0.30599 0,0.21484 0.24089,0.32552 l 2.91016,1.28906 q 0.4427,0.19531 0.72265,0.63151 0.28646,0.42969 0.28646,0.95703 0,0.70313 -0.5013,1.19141 -0.49479,0.48828 -1.1263,0.48828 h -2.21355 q -0.57291,0 -1.0677,-0.34505 -0.48828,-0.34505 -0.48828,-0.67057 0,-0.21485 0.15625,-0.37761 0.16276,-0.16927 0.41666,-0.16927 0.20834,0 0.44271,0.23438 0.24089,0.23437 0.6901,0.23437 h 2.03776 q 0.24089,0 0.40365,-0.18229 0.16276,-0.1888 0.16276,-0.42969 0,-0.37109 -0.36458,-0.53385 l -2.9362,-1.32162 q -0.42318,-0.1888 -0.65104,-0.54687 -0.22787,-0.35807 -0.22787,-0.72917 0,-0.58594 0.40365,-1.01562 0.41016,-0.42969 1.00911,-0.42969 z"
           id="path4101"
           inkscape:connector-curvature="0"
           style="fill:#ffff00;fill-opacity:1" />
        <path
           d="m -382.47837,231.8114 h -1.09375 q -0.67709,0 -1.16537,-0.48177 -0.48828,-0.48177 -0.48828,-1.15885 v -3.54818 h -0.55989 q -0.22787,0 -0.39063,-0.15625 -0.15625,-0.15625 -0.15625,-0.39063 0,-0.22786 0.15625,-0.38411 0.16276,-0.16276 0.39063,-0.16276 h 0.57291 v -1.34115 q 0,-0.22786 0.15625,-0.38411 0.16276,-0.16276 0.39063,-0.16276 0.21484,0 0.3776,0.16276 0.16927,0.16276 0.16927,0.38411 v 1.34115 h 2.20052 q 0.22136,0 0.38412,0.16276 0.16276,0.16276 0.16276,0.38411 0,0.22787 -0.16276,0.39063 -0.16276,0.15625 -0.38412,0.15625 h -2.21354 v 3.54818 q 0,0.22135 0.16276,0.38411 0.16927,0.16276 0.39714,0.16276 h 1.06771 q 0.43619,0 0.57942,-0.46875 0.14323,-0.47526 0.55339,-0.47526 0.24088,0 0.39062,0.16276 0.15625,0.15625 0.15625,0.39714 0,0.49479 -0.46875,0.98958 -0.46224,0.48828 -1.18489,0.48828 z"
           id="path4103"
           inkscape:connector-curvature="0"
           style="fill:#ffff00;fill-opacity:1" />
        <path
           d="m -372.76483,227.58614 v 1.32162 q 0,0.22135 -0.16276,0.38411 -0.16276,0.16276 -0.38412,0.16276 h -3.86718 v 0.31901 q 0,0.27995 0.24088,0.47526 l 0.31901,0.26693 q 0.26042,0.20182 0.49479,0.20182 h 2.8125 q 0.22136,0 0.38412,0.16276 0.16276,0.15625 0.16276,0.38412 0,0.22135 -0.16927,0.38411 -0.16276,0.16276 -0.37761,0.16276 h -2.88411 q -0.28646,0 -0.60547,-0.11719 -0.3125,-0.12369 -0.46224,-0.2539 l -0.48828,-0.42969 q -0.22787,-0.18229 -0.38412,-0.50781 -0.14973,-0.32552 -0.14973,-0.59896 v -2.50651 q 0,-0.21484 0.16276,-0.57943 0.16927,-0.36458 0.42317,-0.5664 l 0.45573,-0.35808 q 0.44922,-0.36458 0.9961,-0.36458 h 1.53645 q 0.57943,0 1.09375,0.48177 l 0.41016,0.39063 q 0.44271,0.39713 0.44271,1.18489 z m -4.40104,-0.0846 v 0.84635 h 3.32031 v -0.76172 q 0,-0.30599 -0.1888,-0.46875 l -0.31901,-0.27995 q -0.2474,-0.20182 -0.44271,-0.20182 h -1.3737 q -0.25391,0 -0.46224,0.17578 l -0.31901,0.26693 q -0.21484,0.16276 -0.21484,0.42318 z"
           id="path4105"
           inkscape:connector-curvature="0"
           style="fill:#ffff00;fill-opacity:1" />
        <path
           d="m -365.81171,231.8114 h -3.30729 q -0.22786,0 -0.39062,-0.16276 -0.15625,-0.16927 -0.15625,-0.39713 0,-0.22136 0.15625,-0.38412 0.16276,-0.16276 0.39062,-0.16276 h 1.09375 v -6.45182 h -1.10677 q -0.22786,0 -0.39062,-0.15625 -0.15625,-0.16276 -0.15625,-0.39063 0,-0.22786 0.15625,-0.38411 0.16276,-0.16276 0.39062,-0.16276 h 1.66667 q 0.22135,0 0.38411,0.16276 0.16276,0.16276 0.16276,0.38411 v 6.9987 h 1.10677 q 0.22136,0 0.38412,0.16276 0.16276,0.16276 0.16276,0.38412 0,0.22786 -0.16276,0.39713 -0.15625,0.16276 -0.38412,0.16276 z"
           id="path4107"
           inkscape:connector-curvature="0"
           style="fill:#ffff00;fill-opacity:1" />
        <path
           d="m -357.76483,231.8114 h -3.30729 q -0.22787,0 -0.39063,-0.16276 -0.15625,-0.16927 -0.15625,-0.39713 0,-0.22136 0.15625,-0.38412 0.16276,-0.16276 0.39063,-0.16276 h 1.09375 v -6.45182 h -1.10677 q -0.22787,0 -0.39063,-0.15625 -0.15625,-0.16276 -0.15625,-0.39063 0,-0.22786 0.15625,-0.38411 0.16276,-0.16276 0.39063,-0.16276 h 1.66666 q 0.22136,0 0.38412,0.16276 0.16276,0.16276 0.16276,0.38411 v 6.9987 h 1.10677 q 0.22135,0 0.38411,0.16276 0.16276,0.16276 0.16276,0.38412 0,0.22786 -0.16276,0.39713 -0.15625,0.16276 -0.38411,0.16276 z"
           id="path4109"
           inkscape:connector-curvature="0"
           style="fill:#ffff00;fill-opacity:1" />
        <path
           d="m -348.62421,227.58614 v 1.32162 q 0,0.22135 -0.16276,0.38411 -0.16276,0.16276 -0.38411,0.16276 h -3.86719 v 0.31901 q 0,0.27995 0.24089,0.47526 l 0.31901,0.26693 q 0.26041,0.20182 0.49479,0.20182 h 2.8125 q 0.22135,0 0.38411,0.16276 0.16276,0.15625 0.16276,0.38412 0,0.22135 -0.16927,0.38411 -0.16276,0.16276 -0.3776,0.16276 h -2.88412 q -0.28645,0 -0.60546,-0.11719 -0.3125,-0.12369 -0.46224,-0.2539 l -0.48829,-0.42969 q -0.22786,-0.18229 -0.38411,-0.50781 -0.14974,-0.32552 -0.14974,-0.59896 v -2.50651 q 0,-0.21484 0.16276,-0.57943 0.16927,-0.36458 0.42318,-0.5664 l 0.45573,-0.35808 q 0.44922,-0.36458 0.99609,-0.36458 h 1.53646 q 0.57943,0 1.09375,0.48177 l 0.41015,0.39063 q 0.44271,0.39713 0.44271,1.18489 z m -4.40104,-0.0846 v 0.84635 h 3.32031 v -0.76172 q 0,-0.30599 -0.1888,-0.46875 l -0.31901,-0.27995 q -0.24739,-0.20182 -0.44271,-0.20182 h -1.37369 q -0.25391,0 -0.46224,0.17578 l -0.31901,0.26693 q -0.21485,0.16276 -0.21485,0.42318 z"
           id="path4111"
           inkscape:connector-curvature="0"
           style="fill:#ffff00;fill-opacity:1" />
        <path
           d="m -343.50051,226.79838 -1.49088,0.97005 v 3.4961 q 0,0.22135 -0.16276,0.38411 -0.16276,0.16276 -0.38412,0.16276 -0.22135,0 -0.38411,-0.16276 -0.16276,-0.16276 -0.16276,-0.38411 v -5.18881 q 0,-0.22786 0.15625,-0.39062 0.16276,-0.16927 0.39062,-0.16927 0.22136,0 0.38412,0.16927 0.16276,0.16276 0.16276,0.39062 v 0.36459 l 0.99609,-0.60547 q 0.5013,-0.31901 1.13281,-0.31901 h 0.50781 q 0.65105,0 1.12631,0.46224 0.47526,0.46224 0.5013,1.13932 l 0.14974,4.14714 q 0.007,0.22135 -0.15625,0.38411 -0.16276,0.16276 -0.39063,0.16276 -0.21484,0 -0.3776,-0.14323 -0.16276,-0.14974 -0.16927,-0.40364 l -0.16276,-4.08203 q -0.0195,-0.57292 -0.59896,-0.57292 h -0.53385 q -0.2474,0 -0.53386,0.1888 z"
           id="path4113"
           inkscape:connector-curvature="0"
           style="fill:#ffff00;fill-opacity:1" />
        <path
           d="m -334.73749,227.95723 v 1.3086 l 0.72917,1.25 0.3776,-1.25 0.11719,-3.19011 q 0.013,-0.22135 0.16927,-0.38411 0.16276,-0.16276 0.37761,-0.16276 0.22786,0 0.39062,0.16276 0.16276,0.15625 0.15625,0.38411 l -0.11719,3.40495 -0.58593,1.9336 q -0.1237,0.39713 -0.50782,0.39713 h -0.58593 q -0.30599,0 -0.48178,-0.30599 l -0.59895,-1.02864 -0.59896,1.01562 q -0.20182,0.31901 -0.48177,0.31901 h -0.57292 q -0.1888,0 -0.34505,-0.11068 -0.14974,-0.11067 -0.1888,-0.26041 l -0.57292,-2.00521 -0.1237,-3.35938 q -0.007,-0.21484 0.16276,-0.3776 0.16927,-0.16927 0.39714,-0.16927 0.20833,0 0.36458,0.15625 0.16276,0.14974 0.16927,0.39062 l 0.1237,3.20313 0.35807,1.22396 0.76172,-1.27604 v -1.26954 q 0,-0.22786 0.16276,-0.38411 0.16276,-0.16276 0.39714,-0.16276 0.22135,0 0.38411,0.16276 0.16276,0.15625 0.16276,0.38411 z"
           id="path4115"
           inkscape:connector-curvature="0"
           style="fill:#ffff00;fill-opacity:1" />
        <path
           d="m -324.48358,227.58614 v 1.32162 q 0,0.22135 -0.16276,0.38411 -0.16276,0.16276 -0.38412,0.16276 h -3.86718 v 0.31901 q 0,0.27995 0.24088,0.47526 l 0.31901,0.26693 q 0.26042,0.20182 0.49479,0.20182 h 2.8125 q 0.22136,0 0.38412,0.16276 0.16276,0.15625 0.16276,0.38412 0,0.22135 -0.16927,0.38411 -0.16276,0.16276 -0.37761,0.16276 h -2.88411 q -0.28646,0 -0.60547,-0.11719 -0.3125,-0.12369 -0.46224,-0.2539 l -0.48828,-0.42969 q -0.22787,-0.18229 -0.38412,-0.50781 -0.14973,-0.32552 -0.14973,-0.59896 v -2.50651 q 0,-0.21484 0.16276,-0.57943 0.16927,-0.36458 0.42317,-0.5664 l 0.45573,-0.35808 q 0.44922,-0.36458 0.9961,-0.36458 h 1.53645 q 0.57943,0 1.09375,0.48177 l 0.41016,0.39063 q 0.44271,0.39713 0.44271,1.18489 z m -4.40104,-0.0846 v 0.84635 h 3.32031 v -0.76172 q 0,-0.30599 -0.1888,-0.46875 l -0.31901,-0.27995 q -0.2474,-0.20182 -0.44271,-0.20182 h -1.3737 q -0.25391,0 -0.46224,0.17578 l -0.31901,0.26693 q -0.21484,0.16276 -0.21484,0.42318 z"
           id="path4117"
           inkscape:connector-curvature="0"
           style="fill:#ffff00;fill-opacity:1" />
        <path
           d="m -321.94452,231.26453 v -5.18881 q 0,-0.22786 0.15625,-0.39062 0.16276,-0.16927 0.39063,-0.16927 0.22786,0 0.38411,0.16276 0.16276,0.16276 0.16276,0.39713 v 0.6836 l 0.89193,-0.76172 q 0.55338,-0.46875 1.08073,-0.46875 h 0.80078 q 0.67708,0 1.15885,0.48177 0.48177,0.48177 0.48177,1.15885 v 0.29297 q 0,0.23438 -0.16276,0.39714 -0.15625,0.16276 -0.38411,0.16276 -0.22787,0 -0.39063,-0.15625 -0.15625,-0.16276 -0.15625,-0.39063 v -0.30599 q 0,-0.22786 -0.16276,-0.38411 -0.15625,-0.16276 -0.38411,-0.16276 h -0.70964 q -0.22786,0 -0.50781,0.24088 l -1.55599,1.34766 v 3.05339 q 0,0.22786 -0.16276,0.39062 -0.16276,0.15625 -0.38411,0.15625 -0.22787,0 -0.39063,-0.15625 -0.15625,-0.16276 -0.15625,-0.39062 z"
           id="path4119"
           inkscape:connector-curvature="0"
           style="fill:#ffff00;fill-opacity:1" />
        <path
           d="m -310.0565,231.8114 h -1.09375 q -0.67708,0 -1.16536,-0.48177 -0.48828,-0.48177 -0.48828,-1.15885 v -3.54818 h -0.5599 q -0.22786,0 -0.39062,-0.15625 -0.15625,-0.15625 -0.15625,-0.39063 0,-0.22786 0.15625,-0.38411 0.16276,-0.16276 0.39062,-0.16276 h 0.57292 v -1.34115 q 0,-0.22786 0.15625,-0.38411 0.16276,-0.16276 0.39062,-0.16276 0.21485,0 0.37761,0.16276 0.16927,0.16276 0.16927,0.38411 v 1.34115 h 2.20052 q 0.22135,0 0.38411,0.16276 0.16276,0.16276 0.16276,0.38411 0,0.22787 -0.16276,0.39063 -0.16276,0.15625 -0.38411,0.15625 h -2.21354 v 3.54818 q 0,0.22135 0.16276,0.38411 0.16927,0.16276 0.39713,0.16276 h 1.06771 q 0.4362,0 0.57943,-0.46875 0.14323,-0.47526 0.55338,-0.47526 0.24089,0 0.39063,0.16276 0.15625,0.15625 0.15625,0.39714 0,0.49479 -0.46875,0.98958 -0.46224,0.48828 -1.1849,0.48828 z"
           id="path4121"
           inkscape:connector-curvature="0"
           style="fill:#ffff00;fill-opacity:1" />
      </g>
      <path
         sodipodi:nodetypes="cccccccccccccccccccccccccccc"
         inkscape:connector-curvature="0"
         d="m -552.02179,867.37065 h -143.62204 v 215.43305 h 280.44094 V 867.37065 h -99.02362 v 33.49002 h -3.77953 v 34.01575 h -30.23622 v -34.01575 h -3.77953 z m 30.23622,146.87585 v -15.11811 h -22.67716 v 15.11811 z m -128.50394,-85.03937 h 52.91339 V 1042.593 h -52.91339 z m 162.51969,17.53359 v -45.35433 h 37.79528 v 45.35433 z"
         style="display:inline;fill:none;stroke:#00ff00;stroke-opacity:1"
         id="path2513" />
    </g>
    <path
       id="path2527"
       style="display:inline;fill:none;stroke:#00ff00;stroke-opacity:1"
       d="m -676.74619,1328.3368 h 321.25984 v -196.5355 h -321.25984 z m 340.15748,18.8976 v -234.3307 h -359.05511 v 234.3307 z"
       inkscape:connector-curvature="0" />
  </g>
  <g
     inkscape:groupmode="layer"
     inkscape:label="blau"
     id="g2535"
     style="display:inline"
     transform="translate(697.90999,-621.91466)">
    <path
       id="path3295"
       style="display:inline;fill:none;stroke:#0000ff;stroke-width:1.00157475;stroke-miterlimit:4;stroke-dasharray:none;stroke-opacity:1"
       d="m 58.49339,1322.6441 -1.36732,-0.5663 -1.17415,-0.901 -0.90096,-1.1741 -0.56636,-1.3673 -0.19318,-1.4674 0.19318,-1.4673 0.56636,-1.3673 0.90096,-1.1742 1.17415,-0.9009 1.36732,-0.5664 1.46732,-0.1932 1.46732,0.1932 1.36733,0.5664 1.17415,0.9009 0.90095,1.1742 0.56637,1.3673 0.19317,1.4673 -0.19317,1.4674 -0.56637,1.3673 -0.90095,1.1741 -1.17415,0.901 -1.36733,0.5663 -1.46732,0.1932 z m 40.9179,-209.6042 h -359.05512 v 234.3308 H 99.41129 Z m -40.9179,64.252 1.46732,-0.1932 1.46732,0.1932 1.36733,0.5664 1.17415,0.9009 0.90095,1.1742 0.56637,1.3673 0.19317,1.4673 -0.19317,1.4674 -0.56637,1.3673 -0.90095,1.1741 -1.17415,0.901 -1.36733,0.5663 -1.46732,0.1932 -1.46732,-0.1932 -1.36732,-0.5663 -1.17415,-0.901 -0.90096,-1.1741 -0.56636,-1.3673 -0.19318,-1.4674 0.19318,-1.4673 0.56636,-1.3673 0.90096,-1.1742 1.17415,-0.9009 z m -11.57242,0 H 12.90522 v 7.5591 h 34.01575 z m -34.01575,26.6079 h 34.01575 v -7.5591 H 12.90522 Z m 44.22085,-6.8415 1.36732,-0.5664 1.46732,-0.1932 1.46732,0.1932 1.36733,0.5664 1.17415,0.9009 0.90095,1.1742 0.56637,1.3673 0.19317,1.4673 -0.19317,1.4674 -0.56637,1.3673 -0.90095,1.1741 -1.17415,0.901 -1.36733,0.5663 -1.46732,0.1932 -1.46732,-0.1932 -1.36732,-0.5663 -1.17415,-0.901 -0.90096,-1.1741 -0.56636,-1.3673 -0.19318,-1.4674 0.19318,-1.4673 0.56636,-1.3673 0.90096,-1.1742 z m 1.36732,67.9858 -1.36732,-0.5663 -1.17415,-0.901 -0.90096,-1.1741 -0.56636,-1.3673 -0.19318,-1.4674 0.19318,-1.4673 0.56636,-1.3673 0.90096,-1.1742 1.17415,-0.9009 1.36732,-0.5664 1.46732,-0.1932 1.46732,0.1932 1.36733,0.5664 1.17415,0.9009 0.90095,1.1742 0.56637,1.3673 0.19317,1.4673 -0.19317,1.4674 -0.56637,1.3673 -0.90095,1.1741 -1.17415,0.901 -1.36733,0.5663 -1.46732,0.1932 z m -1.36732,18.6337 -1.17415,-0.901 -0.90096,-1.1741 -0.56636,-1.3673 -0.19318,-1.4674 0.19318,-1.4673 0.56636,-1.3673 0.90096,-1.1742 1.17415,-0.9009 1.36732,-0.5664 1.46732,-0.1932 1.46732,0.1932 1.36733,0.5664 1.17415,0.9009 0.90095,1.1742 0.56637,1.3673 0.19317,1.4673 -0.19317,1.4674 -0.56637,1.3673 -0.90095,1.1741 -1.17415,0.901 -1.36733,0.5663 -1.46732,0.1932 -1.46732,-0.1932 z m 1.36732,19.7663 -1.36732,-0.5663 -1.17415,-0.901 -0.90096,-1.1741 -0.56636,-1.3673 -0.19318,-1.4674 0.19318,-1.4673 0.56636,-1.3673 0.90096,-1.1742 1.17415,-0.9009 1.36732,-0.5664 1.46732,-0.1932 1.46732,0.1932 1.36733,0.5664 1.17415,0.9009 0.90095,1.1742 0.56637,1.3673 0.19317,1.4673 -0.19317,1.4674 -0.56637,1.3673 -0.90095,1.1741 -1.17415,0.901 -1.36733,0.5663 -1.46732,0.1932 z m -2.54147,-59.0673 -0.90096,-1.1741 -0.56636,-1.3673 -0.19318,-1.4674 0.19318,-1.4673 0.56636,-1.3673 0.90096,-1.1742 1.17415,-0.9009 1.36732,-0.5664 1.46732,-0.1932 1.46732,0.1932 1.36733,0.5664 1.17415,0.9009 0.90095,1.1742 0.56637,1.3673 0.19317,1.4673 -0.19317,1.4674 -0.56637,1.3673 -0.90095,1.1741 -1.17415,0.901 -1.36733,0.5663 -1.46732,0.1932 -1.46732,-0.1932 -1.36732,-0.5663 z m 2.54147,-28.6849 1.46732,-0.1932 1.46732,0.1932 1.36733,0.5664 1.17415,0.9009 0.90095,1.1742 0.56637,1.3673 0.19317,1.4673 -0.19317,1.4674 -0.56637,1.3673 -0.90095,1.1741 -1.17415,0.901 -1.36733,0.5663 -1.46732,0.1932 -1.46732,-0.1932 -1.36732,-0.5663 -1.17415,-0.901 -0.90096,-1.1741 -0.56636,-1.3673 -0.19318,-1.4674 0.19318,-1.4673 0.56636,-1.3673 0.90096,-1.1742 1.17415,-0.9009 z M -51.76981,1192.41 v -45.3543 h 37.79527 v 45.3543 z m 98.69078,118.2236 H 12.90522 v 7.5591 H 46.92097 Z M -142.47847,1154.089 h -90.70866 v 158.7402 h 90.70866 z m 155.38369,87.9084 h 34.01575 v -7.559 H 12.90522 Z m 0,19.0488 h 34.01575 v -7.559 H 12.90522 Z m 0,19.0489 h 34.01575 v -7.5591 H 12.90522 Z m 0,-64.7055 v 7.559 h 34.01575 v -7.559 z m -76.01361,-61.3006 v 162.5197 h -68.0315 V 1154.089 Z m 76.01361,137.4958 v 7.5591 h 34.01575 v -7.5591 z m -60.8955,-76.4976 v 75.5905 h 30.23622 v -75.5905 z"
       inkscape:connector-curvature="0"
       sodipodi:nodetypes="ccccccccccccccccccccccccccccccccccccccccccccccccccccccccccccccccccccccccccccccccccccccccccccccccccccccccccccccccccccccccccccccccccccccccccccccccccccccccccccccccccccccccccccccccccccccccccccccccccccccccccccccccccccccccccccccccccccccccccccccccccccccccccccccccccccccccc" />
    <path
       id="path3279"
       style="display:inline;fill:none;stroke:#0000ff;stroke-width:1.00157475;stroke-miterlimit:4;stroke-dasharray:none;stroke-opacity:1"
       d="m 99.41129,1358.7092 h -359.05512 v 234.3307 H 99.41129 Z m -340.15748,215.4331 V 1377.6069 H 80.51365 v 196.5354 z"
       inkscape:connector-curvature="0"
       sodipodi:nodetypes="cccccccccc" />
    <g
       id="g3970"
       transform="translate(436)">
      <g
         aria-label="binär"
         transform="translate(-696.14462,658.99585)"
         style="font-style:normal;font-variant:normal;font-weight:normal;font-stretch:normal;font-size:26.66666603px;line-height:30px;font-family:'OCR A Extended';-inkscape-font-specification:'OCR A Extended';font-variant-ligatures:normal;font-variant-caps:normal;font-variant-numeric:normal;font-feature-settings:normal;text-align:start;letter-spacing:0px;word-spacing:0px;writing-mode:lr-tb;text-anchor:start;display:inline;fill:#ff0000;fill-opacity:1;stroke:none"
         id="text3942">
        <path
           d="m 243.33378,427.78149 v 2.57162 l 0.48177,-0.38412 q 0.45573,-0.3776 0.94401,-0.3776 h 1.00261 q 0.55338,0 0.98307,0.3776 l 0.52083,0.44922 q 0.21485,0.18881 0.35156,0.54037 0.14323,0.35156 0.14323,0.6901 v 2.21354 q 0,0.29948 -0.1302,0.63151 -0.13021,0.33203 -0.29948,0.48828 l -0.47526,0.44922 q -0.1823,0.17578 -0.52084,0.31901 -0.33854,0.13672 -0.57291,0.13672 h -0.9375 q -0.6836,0 -1.49089,-0.76172 v 0.21485 q 0,0.22786 -0.16276,0.39062 -0.15625,0.15625 -0.38411,0.15625 -0.22787,0 -0.39063,-0.15625 -0.15625,-0.16276 -0.15625,-0.39062 v -7.5586 q 0,-0.22786 0.16276,-0.38411 0.16276,-0.16276 0.38412,-0.16276 0.22786,0 0.38411,0.16276 0.16276,0.15625 0.16276,0.38411 z m 2.34375,2.91667 h -0.75521 q -0.27343,0 -0.41666,0.1237 l -0.98308,0.83984 q -0.1888,0.16927 -0.1888,0.50782 v 1.23697 q 0,0.27344 0.21484,0.45573 l 0.87891,0.74219 q 0.1888,0.17578 0.39714,0.17578 h 0.89192 q 0.18881,0 0.32552,-0.11719 l 0.4362,-0.39062 q 0.17578,-0.13021 0.17578,-0.37109 v -2.30469 q 0,-0.27344 -0.17578,-0.41667 l -0.39713,-0.33203 q -0.1823,-0.14974 -0.40365,-0.14974 z"
           style="font-size:13.33333302px;fill:#ff0000;fill-opacity:1"
           id="path4056"
           inkscape:connector-curvature="0" />
        <path
           d="m 252.44836,426.75285 h 0.57292 q 0.22787,0 0.38412,0.16276 0.16276,0.15625 0.16276,0.38411 v 0.46875 q 0,0.22787 -0.16276,0.39714 -0.15625,0.16276 -0.38412,0.16276 h -0.58594 q -0.23437,0 -0.39713,-0.16927 -0.15625,-0.16927 -0.14974,-0.37761 l 0.013,-0.48177 q 0,-0.22786 0.15625,-0.38411 0.16276,-0.16276 0.39062,-0.16276 z m 2.22657,9.12109 h -3.33334 q -0.22786,0 -0.39062,-0.15625 -0.15625,-0.16276 -0.15625,-0.39062 0,-0.22136 0.15625,-0.38412 0.16276,-0.16276 0.39062,-0.16276 h 1.1198 v -4.08203 h -1.10678 q -0.22786,0 -0.39062,-0.16276 -0.15625,-0.16276 -0.15625,-0.38411 0,-0.22787 0.15625,-0.39063 0.16276,-0.16927 0.39062,-0.16927 h 1.66667 q 0.22787,0 0.38412,0.16927 0.16276,0.16276 0.16276,0.39063 v 4.6289 h 1.09375 q 0.22786,0 0.39062,0.16276 0.16927,0.15625 0.16927,0.38412 0,0.22786 -0.16276,0.39062 -0.16276,0.15625 -0.38411,0.15625 z"
           style="font-size:13.33333302px;fill:#ff0000;fill-opacity:1"
           id="path4058"
           inkscape:connector-curvature="0" />
        <path
           d="m 260.89237,430.87394 -1.49088,0.97005 v 3.4961 q 0,0.22135 -0.16276,0.38411 -0.16276,0.16276 -0.38412,0.16276 -0.22135,0 -0.38411,-0.16276 -0.16276,-0.16276 -0.16276,-0.38411 v -5.1888 q 0,-0.22787 0.15625,-0.39063 0.16276,-0.16927 0.39062,-0.16927 0.22136,0 0.38412,0.16927 0.16276,0.16276 0.16276,0.39063 v 0.36458 l 0.99609,-0.60547 q 0.5013,-0.31901 1.13282,-0.31901 h 0.50781 q 0.65104,0 1.1263,0.46224 0.47526,0.46224 0.5013,1.13932 l 0.14974,4.14714 q 0.007,0.22135 -0.15625,0.38411 -0.16276,0.16276 -0.39062,0.16276 -0.21485,0 -0.37761,-0.14323 -0.16276,-0.14974 -0.16927,-0.40364 l -0.16276,-4.08203 q -0.0195,-0.57292 -0.59896,-0.57292 h -0.53385 q -0.2474,0 -0.53386,0.1888 z"
           style="font-size:13.33333302px;fill:#ff0000;fill-opacity:1"
           id="path4060"
           inkscape:connector-curvature="0" />
        <path
           d="m 267.98222,431.94165 h 2.14193 q 0.17578,0 0.50781,0.0781 l -0.013,-0.77474 q 0,-0.22787 -0.16276,-0.38412 -0.15625,-0.16276 -0.38412,-0.16276 h -2.07682 q -0.22135,0 -0.38412,-0.16276 -0.16276,-0.16276 -0.16276,-0.38411 0,-0.22787 0.15625,-0.38412 0.16276,-0.16276 0.39063,-0.16276 h 2.07682 q 0.67709,0 1.15235,0.47526 0.48177,0.47526 0.5013,1.16537 l 0.13672,4.09505 q 0,0.22786 -0.16276,0.39062 -0.16276,0.15625 -0.38412,0.15625 -0.23437,0 -0.39713,-0.15625 -0.16276,-0.16276 -0.16276,-0.39062 l -0.92448,0.54687 h -1.84896 q -0.69011,0 -1.17188,-0.48177 -0.48177,-0.48177 -0.48177,-1.17187 v -0.63802 q 0,-0.6836 0.48177,-1.16537 0.48828,-0.48828 1.17188,-0.48828 z m 2.73437,2.12891 -0.0326,-0.46224 q -0.007,-0.23438 -0.16276,-0.39063 -0.15625,-0.15625 -0.38411,-0.15625 h -2.15495 q -0.22787,0 -0.39063,0.16276 -0.15625,0.15625 -0.15625,0.38412 v 0.61198 q 0,0.22135 0.16276,0.38411 0.16276,0.16276 0.38412,0.16276 h 1.54297 z m 1.11979,-5.35808 q 0,0.22787 -0.16276,0.39063 -0.15625,0.15625 -0.38411,0.15625 -0.23438,0 -0.39063,-0.15625 -0.15625,-0.16276 -0.15625,-0.39063 v -0.93099 q 0,-0.23437 0.15625,-0.39713 0.16277,-0.16276 0.39063,-0.16276 0.22135,0 0.38411,0.16276 0.16276,0.16276 0.16276,0.39713 z m -4.41406,0 q 0,0.22787 -0.16276,0.39063 -0.15625,0.15625 -0.38411,0.15625 -0.22787,0 -0.39063,-0.15625 -0.15625,-0.16276 -0.15625,-0.39063 v -0.93099 q 0,-0.22786 0.15625,-0.38411 0.16276,-0.16276 0.39063,-0.16276 0.22786,0 0.38411,0.16276 0.16276,0.15625 0.16276,0.38411 z"
           style="font-size:13.33333302px;fill:#ff0000;fill-opacity:1"
           id="path4062"
           inkscape:connector-curvature="0" />
        <path
           d="m 274.40149,435.34009 v -5.1888 q 0,-0.22787 0.15625,-0.39063 0.16276,-0.16927 0.39062,-0.16927 0.22787,0 0.38412,0.16276 0.16276,0.16276 0.16276,0.39714 v 0.68359 l 0.89193,-0.76172 q 0.55338,-0.46875 1.08073,-0.46875 h 0.80078 q 0.67708,0 1.15885,0.48177 0.48177,0.48177 0.48177,1.15886 v 0.29296 q 0,0.23438 -0.16276,0.39714 -0.15625,0.16276 -0.38411,0.16276 -0.22787,0 -0.39063,-0.15625 -0.15625,-0.16276 -0.15625,-0.39062 v -0.30599 q 0,-0.22787 -0.16276,-0.38412 -0.15625,-0.16276 -0.38411,-0.16276 h -0.70964 q -0.22786,0 -0.50781,0.24089 l -1.55599,1.34765 v 3.05339 q 0,0.22786 -0.16276,0.39062 -0.16276,0.15625 -0.38412,0.15625 -0.22786,0 -0.39062,-0.15625 -0.15625,-0.16276 -0.15625,-0.39062 z"
           style="font-size:13.33333302px;fill:#ff0000;fill-opacity:1"
           id="path4064"
           inkscape:connector-curvature="0" />
      </g>
      <g
         id="g3927">
        <g
           aria-label="2"
           transform="translate(-696.14462,658.99585)"
           style="font-style:normal;font-variant:normal;font-weight:normal;font-stretch:normal;font-size:13.33333302px;line-height:30px;font-family:'OCR A Extended';-inkscape-font-specification:'OCR A Extended';font-variant-ligatures:normal;font-variant-caps:normal;font-variant-numeric:normal;font-feature-settings:normal;text-align:start;letter-spacing:0px;word-spacing:0px;writing-mode:lr-tb;text-anchor:start;display:inline;fill:#ff0000;fill-opacity:1;stroke:none"
           id="text3793">
          <path
             d="m 304.95773,301.17088 h -4.97396 v -3.77604 q 0,-0.45573 0.31902,-0.78125 0.32552,-0.32552 0.77473,-0.32552 h 3.32032 v -2.66276 h -3.90625 q -0.23438,0 -0.39063,-0.15625 -0.15625,-0.16277 -0.15625,-0.39063 0,-0.22786 0.15625,-0.38411 0.15625,-0.16276 0.39063,-0.16276 h 3.90625 q 0.45573,0 0.78125,0.32552 0.32552,0.31901 0.32552,0.76823 v 2.66276 q 0,0.46224 -0.32552,0.78776 -0.32552,0.31901 -0.78125,0.31901 h -3.32032 v 2.68229 h 3.88021 q 0.22136,0 0.38412,0.16276 0.16276,0.15625 0.16276,0.38411 0,0.22787 -0.16276,0.39063 -0.16276,0.15625 -0.38412,0.15625 z"
             id="path4067"
             inkscape:connector-curvature="0"
             style="fill:#ff0000;fill-opacity:1" />
        </g>
        <g
           aria-label="4"
           transform="translate(-696.14462,658.99585)"
           style="font-style:normal;font-variant:normal;font-weight:normal;font-stretch:normal;font-size:13.33333302px;line-height:30px;font-family:'OCR A Extended';-inkscape-font-specification:'OCR A Extended';font-variant-ligatures:normal;font-variant-caps:normal;font-variant-numeric:normal;font-feature-settings:normal;text-align:start;letter-spacing:0px;word-spacing:0px;writing-mode:lr-tb;text-anchor:start;display:inline;fill:#ff0000;fill-opacity:1;stroke:none"
           id="text3797">
          <path
             d="m 303.86398,319.95848 v -2.27865 h -3.29427 v -5.26693 q 0,-0.22786 0.16276,-0.39062 0.16927,-0.16927 0.39714,-0.16927 0.22135,0 0.38411,0.16927 0.16276,0.16276 0.16276,0.39062 v 4.16016 h 2.1875 v -3.20313 q 0,-0.22786 0.15625,-0.39062 0.16276,-0.16927 0.39063,-0.16927 0.22786,0 0.38411,0.16927 0.16276,0.16276 0.16276,0.39062 v 3.20313 q 0.22787,0 0.38412,0.16276 0.16276,0.15625 0.16276,0.38411 0,0.22787 -0.16276,0.39063 -0.15625,0.15625 -0.38412,0.15625 v 2.29167 q 0,0.22786 -0.16276,0.39062 -0.16276,0.15625 -0.38411,0.15625 -0.22787,0 -0.39063,-0.15625 -0.15625,-0.16276 -0.15625,-0.39062 z"
             id="path4070"
             inkscape:connector-curvature="0"
             style="fill:#ff0000;fill-opacity:1" />
        </g>
        <g
           aria-label="8"
           transform="translate(-696.14462,658.99585)"
           style="font-style:normal;font-variant:normal;font-weight:normal;font-stretch:normal;font-size:13.33333302px;line-height:30px;font-family:'OCR A Extended';-inkscape-font-specification:'OCR A Extended';font-variant-ligatures:normal;font-variant-caps:normal;font-variant-numeric:normal;font-feature-settings:normal;text-align:start;letter-spacing:0px;word-spacing:0px;writing-mode:lr-tb;text-anchor:start;display:inline;fill:#ff0000;fill-opacity:1;stroke:none"
           id="text3801">
          <path
             d="m 299.98376,338.72011 v -2.66927 q 0,-0.44922 0.32553,-0.76823 0.32552,-0.32552 0.78125,-0.32552 v -3.22265 q 0,-0.22787 0.15625,-0.38412 0.15625,-0.16276 0.39062,-0.16276 h 2.22656 q 0.22787,0 0.38412,0.16276 0.16276,0.15625 0.16276,0.38412 v 3.22265 q 0.44271,0 0.76823,0.31901 0.32552,0.3125 0.32552,0.77474 v 2.68229 q 0,0.44922 -0.32552,0.77474 -0.32552,0.31901 -0.76823,0.31901 h -3.32031 q -0.46224,0 -0.78776,-0.33854 -0.31902,-0.33854 -0.31902,-0.76823 z m 2.20053,-6.4388 v 2.67578 h 1.13281 v -2.67578 z m -1.09375,3.76953 v 2.68229 h 3.32031 v -2.68229 z"
             id="path4073"
             inkscape:connector-curvature="0"
             style="fill:#ff0000;fill-opacity:1" />
        </g>
        <g
           aria-label="16"
           transform="translate(-696.14462,658.99585)"
           style="font-style:normal;font-variant:normal;font-weight:normal;font-stretch:normal;font-size:13.33333302px;line-height:30px;font-family:'OCR A Extended';-inkscape-font-specification:'OCR A Extended';font-variant-ligatures:normal;font-variant-caps:normal;font-variant-numeric:normal;font-feature-settings:normal;text-align:start;letter-spacing:0px;word-spacing:0px;writing-mode:lr-tb;text-anchor:start;display:inline;fill:#ff0000;fill-opacity:1;stroke:none"
           id="text3805">
          <path
             d="m 292.45773,358.0612 h 1.67969 v -6.45182 h -1.65365 q -0.22786,0 -0.39062,-0.15625 -0.15625,-0.16277 -0.15625,-0.39063 0,-0.22786 0.15625,-0.38411 0.16276,-0.16276 0.39062,-0.16276 h 2.7474 v 7.54557 h 1.09375 v -2.27865 q 0,-0.22135 0.15625,-0.38411 0.16276,-0.16276 0.39063,-0.16276 0.22786,0 0.38411,0.16276 0.16276,0.15625 0.16276,0.38411 v 2.82552 q 0,0.22787 -0.16276,0.39063 -0.15625,0.15625 -0.38411,0.15625 h -4.41407 q -0.22786,0 -0.39062,-0.16276 -0.15625,-0.16927 -0.15625,-0.39714 0,-0.22135 0.15625,-0.3776 0.16276,-0.15625 0.39062,-0.15625 z"
             id="path4076"
             inkscape:connector-curvature="0"
             style="fill:#ff0000;fill-opacity:1" />
          <path
             d="m 300.55669,350.51563 h 0.54688 q 0.22786,0 0.38411,0.16276 0.16276,0.16276 0.16276,0.38411 0,0.22786 -0.16276,0.39063 -0.15625,0.15625 -0.38411,0.15625 v 3.61328 h 3.85416 q 0.22136,0 0.38412,0.16927 0.16276,0.16276 0.16276,0.39062 v 2.82552 q 0,0.22787 -0.16927,0.39063 -0.16276,0.15625 -0.39063,0.15625 h -4.38802 q -0.22786,0 -0.39713,-0.16276 -0.16276,-0.16276 -0.16276,-0.38412 v -7.54557 q 0,-0.22786 0.16276,-0.38411 0.16276,-0.16276 0.39713,-0.16276 z m 0.53386,5.8138 v 1.73177 h 3.30729 v -1.73177 z"
             id="path4078"
             inkscape:connector-curvature="0"
             style="fill:#ff0000;fill-opacity:1" />
        </g>
        <g
           aria-label="32"
           transform="translate(-696.14462,658.99585)"
           style="font-style:normal;font-variant:normal;font-weight:normal;font-stretch:normal;font-size:13.33333302px;line-height:30px;font-family:'OCR A Extended';-inkscape-font-specification:'OCR A Extended';font-variant-ligatures:normal;font-variant-caps:normal;font-variant-numeric:normal;font-feature-settings:normal;text-align:start;letter-spacing:0px;word-spacing:0px;writing-mode:lr-tb;text-anchor:start;display:inline;fill:#ff0000;fill-opacity:1;stroke:none"
           id="text3809">
          <path
             d="m 297.45773,370.93738 v 2.05078 q 0,0.71615 -0.44271,1.15885 0.45573,0.50782 0.45573,1.10677 v 2.13542 q 0,0.44922 -0.32552,0.77474 -0.32552,0.31901 -0.78125,0.31901 h -3.86718 q -0.22787,0 -0.39063,-0.15625 -0.15625,-0.16276 -0.15625,-0.39062 0,-0.22787 0.15625,-0.38412 0.16276,-0.16276 0.39063,-0.16276 h 3.85416 v -2.13542 q 0,-0.22786 -0.16276,-0.39062 -0.15625,-0.16927 -0.38411,-0.16927 h -2.20052 q -0.22787,0 -0.39063,-0.15625 -0.15625,-0.15625 -0.15625,-0.39063 0,-0.22786 0.15625,-0.38411 0.16276,-0.16276 0.39063,-0.16276 h 2.21354 q 0.22135,0 0.38411,-0.15625 0.16276,-0.16276 0.16276,-0.39063 v -2.11588 h -3.90625 q -0.22786,0 -0.39062,-0.15625 -0.15625,-0.16276 -0.15625,-0.39063 0,-0.22786 0.15625,-0.38411 0.16276,-0.16276 0.39062,-0.16276 h 3.90625 q 0.45573,0 0.77474,0.32552 0.31901,0.31901 0.31901,0.76823 z"
             id="path4081"
             inkscape:connector-curvature="0"
             style="fill:#ff0000;fill-opacity:1" />
          <path
             d="m 304.95773,378.48295 h -4.97396 v -3.77604 q 0,-0.45573 0.31902,-0.78125 0.32552,-0.32552 0.77473,-0.32552 h 3.32032 v -2.66276 h -3.90625 q -0.23438,0 -0.39063,-0.15625 -0.15625,-0.16276 -0.15625,-0.39063 0,-0.22786 0.15625,-0.38411 0.15625,-0.16276 0.39063,-0.16276 h 3.90625 q 0.45573,0 0.78125,0.32552 0.32552,0.31901 0.32552,0.76823 v 2.66276 q 0,0.46224 -0.32552,0.78776 -0.32552,0.31901 -0.78125,0.31901 h -3.32032 v 2.68229 h 3.88021 q 0.22136,0 0.38412,0.16276 0.16276,0.15625 0.16276,0.38412 0,0.22786 -0.16276,0.39062 -0.16276,0.15625 -0.38412,0.15625 z"
             id="path4083"
             inkscape:connector-curvature="0"
             style="fill:#ff0000;fill-opacity:1" />
        </g>
        <g
           aria-label="64"
           transform="translate(-696.14462,658.99585)"
           style="font-style:normal;font-variant:normal;font-weight:normal;font-stretch:normal;font-size:13.33333302px;line-height:30px;font-family:'OCR A Extended';-inkscape-font-specification:'OCR A Extended';font-variant-ligatures:normal;font-variant-caps:normal;font-variant-numeric:normal;font-feature-settings:normal;text-align:start;letter-spacing:0px;word-spacing:0px;writing-mode:lr-tb;text-anchor:start;display:inline;fill:#ff0000;fill-opacity:1;stroke:none"
           id="text3813">
          <path
             d="m 292.80279,389.1781 h 0.54687 q 0.22786,0 0.38411,0.16276 0.16277,0.16276 0.16277,0.38412 0,0.22786 -0.16277,0.39062 -0.15625,0.15625 -0.38411,0.15625 v 3.61328 h 3.85417 q 0.22135,0 0.38411,0.16927 0.16276,0.16276 0.16276,0.39063 v 2.82552 q 0,0.22786 -0.16927,0.39062 -0.16276,0.15625 -0.39062,0.15625 h -4.38802 q -0.22787,0 -0.39714,-0.16276 -0.16276,-0.16276 -0.16276,-0.38411 v -7.54557 q 0,-0.22787 0.16276,-0.38412 0.16276,-0.16276 0.39714,-0.16276 z m 0.53385,5.8138 v 1.73177 h 3.30729 v -1.73177 z"
             id="path4086"
             inkscape:connector-curvature="0"
             style="fill:#ff0000;fill-opacity:1" />
          <path
             d="m 303.86398,397.27055 v -2.27865 h -3.29427 v -5.26692 q 0,-0.22787 0.16276,-0.39063 0.16927,-0.16927 0.39714,-0.16927 0.22135,0 0.38411,0.16927 0.16276,0.16276 0.16276,0.39063 v 4.16015 h 2.1875 v -3.20312 q 0,-0.22787 0.15625,-0.39063 0.16276,-0.16927 0.39063,-0.16927 0.22786,0 0.38411,0.16927 0.16276,0.16276 0.16276,0.39063 v 3.20312 q 0.22787,0 0.38412,0.16276 0.16276,0.15625 0.16276,0.38412 0,0.22786 -0.16276,0.39062 -0.15625,0.15625 -0.38412,0.15625 v 2.29167 q 0,0.22786 -0.16276,0.39062 -0.16276,0.15625 -0.38411,0.15625 -0.22787,0 -0.39063,-0.15625 -0.15625,-0.16276 -0.15625,-0.39062 z"
             id="path4088"
             inkscape:connector-curvature="0"
             style="fill:#ff0000;fill-opacity:1" />
        </g>
        <g
           aria-label="128"
           transform="translate(-696.14462,658.99585)"
           style="font-style:normal;font-variant:normal;font-weight:normal;font-stretch:normal;font-size:13.33333302px;line-height:30px;font-family:'OCR A Extended';-inkscape-font-specification:'OCR A Extended';font-variant-ligatures:normal;font-variant-caps:normal;font-variant-numeric:normal;font-feature-settings:normal;text-align:start;letter-spacing:0px;word-spacing:0px;writing-mode:lr-tb;text-anchor:start;display:inline;fill:#ff0000;fill-opacity:1;stroke:none"
           id="text3817">
          <path
             d="m 284.43689,416.04521 h 1.67969 v -6.45183 h -1.65365 q -0.22786,0 -0.39062,-0.15625 -0.15625,-0.16276 -0.15625,-0.39062 0,-0.22787 0.15625,-0.38412 0.16276,-0.16276 0.39062,-0.16276 h 2.7474 v 7.54558 h 1.09375 v -2.27865 q 0,-0.22135 0.15625,-0.38411 0.16276,-0.16276 0.39062,-0.16276 0.22787,0 0.38412,0.16276 0.16276,0.15625 0.16276,0.38411 v 2.82552 q 0,0.22787 -0.16276,0.39063 -0.15625,0.15625 -0.38412,0.15625 h -4.41406 q -0.22786,0 -0.39063,-0.16276 -0.15625,-0.16927 -0.15625,-0.39714 0,-0.22135 0.15625,-0.3776 0.16277,-0.15625 0.39063,-0.15625 z"
             id="path4091"
             inkscape:connector-curvature="0"
             style="fill:#ff0000;fill-opacity:1" />
          <path
             d="m 296.93689,417.13896 h -4.97396 v -3.77604 q 0,-0.45573 0.31901,-0.78125 0.32552,-0.32553 0.77474,-0.32553 h 3.32031 v -2.66276 h -3.90625 q -0.23437,0 -0.39062,-0.15625 -0.15625,-0.16276 -0.15625,-0.39062 0,-0.22787 0.15625,-0.38412 0.15625,-0.16276 0.39062,-0.16276 h 3.90625 q 0.45573,0 0.78125,0.32552 0.32552,0.31902 0.32552,0.76823 v 2.66276 q 0,0.46224 -0.32552,0.78776 -0.32552,0.31902 -0.78125,0.31902 h -3.32031 v 2.68229 h 3.88021 q 0.22135,0 0.38411,0.16276 0.16276,0.15625 0.16276,0.38411 0,0.22787 -0.16276,0.39063 -0.16276,0.15625 -0.38411,0.15625 z"
             id="path4093"
             inkscape:connector-curvature="0"
             style="fill:#ff0000;fill-opacity:1" />
          <path
             d="m 299.98376,416.03219 v -2.66927 q 0,-0.44922 0.32553,-0.76823 0.32552,-0.32552 0.78125,-0.32552 v -3.22266 q 0,-0.22787 0.15625,-0.38412 0.15625,-0.16276 0.39062,-0.16276 h 2.22656 q 0.22787,0 0.38412,0.16276 0.16276,0.15625 0.16276,0.38412 v 3.22266 q 0.44271,0 0.76823,0.31901 0.32552,0.3125 0.32552,0.77474 v 2.68229 q 0,0.44922 -0.32552,0.77474 -0.32552,0.31901 -0.76823,0.31901 h -3.32031 q -0.46224,0 -0.78776,-0.33854 -0.31902,-0.33855 -0.31902,-0.76823 z m 2.20053,-6.43881 v 2.67579 h 1.13281 v -2.67579 z m -1.09375,3.76954 v 2.68229 h 3.32031 v -2.68229 z"
             id="path4095"
             inkscape:connector-curvature="0"
             style="fill:#ff0000;fill-opacity:1" />
        </g>
        <g
           aria-label="1"
           transform="translate(-696.14462,658.99585)"
           style="font-style:normal;font-variant:normal;font-weight:normal;font-stretch:normal;font-size:13.33333302px;line-height:30px;font-family:'OCR A Extended';-inkscape-font-specification:'OCR A Extended';font-variant-ligatures:normal;font-variant-caps:normal;font-variant-numeric:normal;font-feature-settings:normal;text-align:start;letter-spacing:0px;word-spacing:0px;writing-mode:lr-tb;text-anchor:start;display:inline;fill:#ff0000;fill-opacity:1;stroke:none"
           id="text3821">
          <path
             d="m 300.54367,280.74913 h 1.67969 v -6.45183 h -1.65365 q -0.22786,0 -0.39062,-0.15625 -0.15625,-0.16276 -0.15625,-0.39062 0,-0.22787 0.15625,-0.38412 0.16276,-0.16276 0.39062,-0.16276 h 2.7474 v 7.54558 h 1.09375 v -2.27865 q 0,-0.22135 0.15625,-0.38412 0.16276,-0.16276 0.39062,-0.16276 0.22787,0 0.38412,0.16276 0.16276,0.15625 0.16276,0.38412 v 2.82552 q 0,0.22786 -0.16276,0.39063 -0.15625,0.15625 -0.38412,0.15625 h -4.41406 q -0.22786,0 -0.39062,-0.16277 -0.15625,-0.16927 -0.15625,-0.39713 0,-0.22135 0.15625,-0.3776 0.16276,-0.15625 0.39062,-0.15625 z"
             id="path4098"
             inkscape:connector-curvature="0"
             style="fill:#ff0000;fill-opacity:1" />
        </g>
        <path
           id="path3231"
           style="display:inline;fill:none;stroke:#0000ff;stroke-width:1.00157475;stroke-miterlimit:4;stroke-dasharray:none;stroke-opacity:1"
           d="m -544.46272,1014.2465 v -15.1181 h 22.67716 v 15.1181 z M -650.2895,1042.593 V 929.20714 h 52.91339 V 1042.593 Z m 200.31496,-141.2066 v 45.35433 h -37.79527 V 901.3864 Z m -64.25196,-0.52572 v -33.49003 h 126.61417 v 234.33075 h -308.0315 V 867.37065 h 143.62205 v 33.49003 h 3.77953 v 34.01575 h 30.23622 v -34.01575 z"
           inkscape:connector-curvature="0"
           sodipodi:nodetypes="cccccccccccccccccccccccccccc" />
      </g>
    </g>
    <g
       id="g3988"
       transform="translate(436,-208)">
      <g
         aria-label="decimal"
         style="font-style:normal;font-variant:normal;font-weight:normal;font-stretch:normal;font-size:13.33333302px;line-height:30px;font-family:'OCR A Extended';-inkscape-font-specification:'OCR A Extended';font-variant-ligatures:normal;font-variant-caps:normal;font-variant-numeric:normal;font-feature-settings:normal;text-align:start;letter-spacing:0px;word-spacing:0px;writing-mode:lr-tb;text-anchor:start;display:inline;fill:#ff0000;fill-opacity:1;stroke:none"
         id="text3946">
        <path
           d="m -646.88332,1050.9685 v -2.5846 q 0,-0.2279 0.15625,-0.3841 0.15625,-0.1628 0.3776,-0.1628 0.22787,0 0.39063,0.1628 0.16927,0.1562 0.16927,0.3841 v 7.5586 q 0,0.2279 -0.16276,0.3906 -0.16276,0.1563 -0.38412,0.1563 -0.23437,0 -0.39062,-0.1563 -0.15625,-0.1627 -0.15625,-0.3906 v -0.2409 q -0.80078,0.7878 -1.4974,0.7878 h -0.93099 q -0.55989,0 -1.11979,-0.4818 l -0.45573,-0.3841 q -0.15625,-0.1497 -0.29948,-0.5013 -0.13672,-0.3516 -0.13672,-0.6576 v -2.2265 q 0,-0.3711 0.15625,-0.7162 0.15625,-0.3515 0.36459,-0.5273 l 0.44922,-0.3841 q 0.48177,-0.4167 1.13281,-0.4167 h 0.78776 q 0.64453,0 1.17187,0.4557 z m -1.58854,0.3321 h -0.76172 q -0.24089,0 -0.4362,0.1758 l -0.35156,0.3059 q -0.18229,0.1628 -0.18229,0.4167 v 2.3177 q 0,0.2279 0.21484,0.4102 l 0.35807,0.306 q 0.16927,0.1497 0.35808,0.1497 h 0.89192 q 0.17578,0 0.41667,-0.2018 l 0.86588,-0.7162 q 0.21485,-0.1888 0.21485,-0.4687 v -1.1849 q 0,-0.3971 -0.22787,-0.5859 l -0.89192,-0.7618 q -0.17578,-0.1627 -0.46875,-0.1627 z"
           id="path4041"
           inkscape:connector-curvature="0"
           style="fill:#ff0000;fill-opacity:1" />
        <path
           d="m -637.72968,1052.2641 v 1.3216 q 0,0.2214 -0.16276,0.3841 -0.16276,0.1628 -0.38411,0.1628 h -3.86719 v 0.319 q 0,0.28 0.24089,0.4753 l 0.31901,0.2669 q 0.26041,0.2018 0.49479,0.2018 h 2.8125 q 0.22135,0 0.38411,0.1628 0.16276,0.1562 0.16276,0.3841 0,0.2214 -0.16927,0.3841 -0.16276,0.1628 -0.3776,0.1628 h -2.88411 q -0.28646,0 -0.60547,-0.1172 -0.3125,-0.1237 -0.46224,-0.2539 l -0.48828,-0.4297 q -0.22787,-0.1823 -0.38412,-0.5078 -0.14974,-0.3255 -0.14974,-0.599 v -2.5065 q 0,-0.2148 0.16276,-0.5794 0.16927,-0.3646 0.42318,-0.5664 l 0.45573,-0.3581 q 0.44922,-0.3646 0.99609,-0.3646 h 1.53646 q 0.57943,0 1.09375,0.4818 l 0.41016,0.3906 q 0.4427,0.3972 0.4427,1.1849 z m -4.40104,-0.085 v 0.8463 h 3.32032 v -0.7617 q 0,-0.306 -0.18881,-0.4687 l -0.31901,-0.28 q -0.24739,-0.2018 -0.44271,-0.2018 h -1.37369 q -0.25391,0 -0.46224,0.1758 l -0.31901,0.2669 q -0.21485,0.1628 -0.21485,0.4232 z"
           id="path4043"
           inkscape:connector-curvature="0"
           style="fill:#ff0000;fill-opacity:1" />
        <path
           d="m -630.21665,1056.4894 h -2.33724 q -0.61849,0 -1.05469,-0.3711 l -1.0612,-0.9245 q -0.50781,-0.4232 -0.50781,-1.1458 v -1.4258 q -0.026,-0.6966 0.57291,-1.2109 l 0.95704,-0.8269 q 0.46224,-0.3776 0.98958,-0.3776 h 2.45443 q 0.22786,0 0.38411,0.1628 0.16276,0.1562 0.16276,0.3841 0,0.2344 -0.16276,0.3906 -0.15625,0.1563 -0.38411,0.1563 h -2.35026 q -0.22136,0 -0.42318,0.1758 l -0.87891,0.7487 q -0.21484,0.1822 -0.21484,0.4882 v 1.3347 q 0,0.2148 0.16927,0.3646 l 0.96354,0.8203 q 0.18229,0.1627 0.48177,0.1627 h 2.23959 q 0.22135,0 0.38411,0.1628 0.16276,0.1562 0.16276,0.3841 0,0.2279 -0.16276,0.3906 -0.15625,0.1563 -0.38411,0.1563 z"
           id="path4045"
           inkscape:connector-curvature="0"
           style="fill:#ff0000;fill-opacity:1" />
        <path
           d="m -624.95624,1047.3553 h 0.57292 q 0.22786,0 0.38411,0.1627 0.16276,0.1563 0.16276,0.3841 v 0.4688 q 0,0.2279 -0.16276,0.3971 -0.15625,0.1628 -0.38411,0.1628 h -0.58594 q -0.23437,0 -0.39713,-0.1693 -0.15625,-0.1693 -0.14974,-0.3776 l 0.013,-0.4818 q 0,-0.2278 0.15625,-0.3841 0.16276,-0.1627 0.39062,-0.1627 z m 2.22656,9.1211 h -3.33333 q -0.22786,0 -0.39062,-0.1563 -0.15625,-0.1628 -0.15625,-0.3906 0,-0.2214 0.15625,-0.3841 0.16276,-0.1628 0.39062,-0.1628 h 1.11979 v -4.082 h -1.10677 q -0.22786,0 -0.39062,-0.1628 -0.15625,-0.1627 -0.15625,-0.3841 0,-0.2279 0.15625,-0.3906 0.16276,-0.1693 0.39062,-0.1693 h 1.66667 q 0.22786,0 0.38411,0.1693 0.16276,0.1627 0.16276,0.3906 v 4.6289 h 1.09375 q 0.22787,0 0.39063,0.1628 0.16927,0.1562 0.16927,0.3841 0,0.2278 -0.16276,0.3906 -0.16276,0.1563 -0.38412,0.1563 z"
           id="path4047"
           inkscape:connector-curvature="0"
           style="fill:#ff0000;fill-opacity:1" />
        <path
           d="m -619.23358,1055.9425 v -5.1888 q 0,-0.2279 0.15625,-0.3841 0.16276,-0.1628 0.39062,-0.1628 0.42318,0 0.53386,0.4167 0.45573,-0.4297 1.01562,-0.4297 0.65755,0 1.08073,0.5599 0.52084,-0.5599 1.14583,-0.5599 0.50782,0 0.87891,0.3646 0.37761,0.3581 0.40365,0.918 l 0.15625,4.4661 q 0,0.2214 -0.16276,0.3841 -0.16276,0.1628 -0.38412,0.1628 -0.22786,0 -0.39062,-0.1628 -0.16276,-0.1627 -0.16927,-0.3841 l -0.13021,-4.2904 q -0.013,-0.3515 -0.21485,-0.3515 -0.11067,0 -0.22786,0.098 l -0.65104,0.5469 v 3.9974 q 0,0.2214 -0.16276,0.3776 -0.15625,0.1563 -0.38412,0.1563 -0.22135,0 -0.38411,-0.1563 -0.16276,-0.1628 -0.16276,-0.3906 v -4.349 q 0,-0.2799 -0.24089,-0.2799 -0.11718,0 -0.21484,0.085 l -0.78776,0.6641 v 3.8932 q 0,0.2214 -0.15625,0.3841 -0.15625,0.1628 -0.37761,0.1628 -0.22786,0 -0.39713,-0.1628 -0.16276,-0.1627 -0.16276,-0.3841 z"
           id="path4049"
           inkscape:connector-curvature="0"
           style="fill:#ff0000;fill-opacity:1" />
        <path
           d="m -609.42238,1052.5441 h 2.14192 q 0.17578,0 0.50782,0.078 l -0.013,-0.7747 q 0,-0.2279 -0.16276,-0.3842 -0.15625,-0.1627 -0.38411,-0.1627 h -2.07682 q -0.22136,0 -0.38412,-0.1628 -0.16276,-0.1627 -0.16276,-0.3841 0,-0.2279 0.15625,-0.3841 0.16276,-0.1628 0.39063,-0.1628 h 2.07682 q 0.67708,0 1.15234,0.4753 0.48177,0.4752 0.50131,1.1654 l 0.13671,4.095 q 0,0.2279 -0.16276,0.3906 -0.16276,0.1563 -0.38411,0.1563 -0.23438,0 -0.39714,-0.1563 -0.16276,-0.1627 -0.16276,-0.3906 l -0.92448,0.5469 h -1.84895 q -0.69011,0 -1.17188,-0.4818 -0.48177,-0.4818 -0.48177,-1.1719 v -0.638 q 0,-0.6836 0.48177,-1.1654 0.48828,-0.4882 1.17188,-0.4882 z m 2.73437,2.1289 -0.0326,-0.4623 q -0.007,-0.2343 -0.16276,-0.3906 -0.15625,-0.1562 -0.38412,-0.1562 h -2.15494 q -0.22787,0 -0.39063,0.1627 -0.15625,0.1563 -0.15625,0.3841 v 0.612 q 0,0.2214 0.16276,0.3841 0.16276,0.1628 0.38412,0.1628 h 1.54297 z"
           id="path4051"
           inkscape:connector-curvature="0"
           style="fill:#ff0000;fill-opacity:1" />
        <path
           d="m -598.58905,1056.4894 h -3.30729 q -0.22787,0 -0.39063,-0.1628 -0.15625,-0.1693 -0.15625,-0.3971 0,-0.2214 0.15625,-0.3841 0.16276,-0.1628 0.39063,-0.1628 h 1.09375 v -6.4518 h -1.10677 q -0.22787,0 -0.39063,-0.1563 -0.15625,-0.1627 -0.15625,-0.3906 0,-0.2279 0.15625,-0.3841 0.16276,-0.1628 0.39063,-0.1628 h 1.66666 q 0.22136,0 0.38412,0.1628 0.16276,0.1628 0.16276,0.3841 v 6.9987 h 1.10677 q 0.22135,0 0.38411,0.1628 0.16276,0.1627 0.16276,0.3841 0,0.2278 -0.16276,0.3971 -0.15625,0.1628 -0.38411,0.1628 z"
           id="path4053"
           inkscape:connector-curvature="0"
           style="fill:#ff0000;fill-opacity:1" />
      </g>
      <g
         id="g4008">
        <g
           id="g3892"
           transform="translate(-1e-5,208.90789)">
          <path
             transform="translate(-696.14462,658.99585)"
             sodipodi:nodetypes="cccc"
             inkscape:connector-curvature="0"
             id="path3839"
             d="m 157.19133,74.300107 v 41.467653 41.46765 -0.96437"
             style="display:inline;fill:none;stroke:#ff0000;stroke-width:1px;stroke-linecap:butt;stroke-linejoin:miter;stroke-opacity:1" />
          <path
             sodipodi:nodetypes="cc"
             inkscape:connector-curvature="0"
             id="path3863"
             d="m -539.30572,762.94451 h 38.98111"
             style="display:inline;fill:none;stroke:#ff0000;stroke-width:1px;stroke-linecap:butt;stroke-linejoin:miter;stroke-opacity:1" />
          <g
             aria-label="1"
             transform="translate(-696.14462,658.99585)"
             style="font-style:normal;font-variant:normal;font-weight:normal;font-stretch:normal;font-size:13.33333302px;line-height:30px;font-family:'OCR A Extended';-inkscape-font-specification:'OCR A Extended';font-variant-ligatures:normal;font-variant-caps:normal;font-variant-numeric:normal;font-feature-settings:normal;text-align:start;letter-spacing:0px;word-spacing:0px;writing-mode:lr-tb;text-anchor:start;display:inline;fill:#ff0000;fill-opacity:1;stroke:none"
             id="text3147">
            <path
               d="m 113.50787,84.371516 h 1.67968 v -6.451823 h -1.65364 q -0.22787,0 -0.39063,-0.15625 -0.15625,-0.16276 -0.15625,-0.390625 0,-0.227864 0.15625,-0.384114 0.16276,-0.162761 0.39063,-0.162761 h 2.74739 v 7.545573 h 1.09375 V 82.09287 q 0,-0.221354 0.15625,-0.384114 0.16276,-0.162761 0.39063,-0.162761 0.22786,0 0.38411,0.162761 0.16276,0.15625 0.16276,0.384114 v 2.825521 q 0,0.227865 -0.16276,0.390625 -0.15625,0.15625 -0.38411,0.15625 h -4.41406 q -0.22787,0 -0.39063,-0.162761 -0.15625,-0.16927 -0.15625,-0.397135 0,-0.221354 0.15625,-0.377604 0.16276,-0.15625 0.39063,-0.15625 z"
               id="path4010"
               inkscape:connector-curvature="0"
               style="fill:#ff0000;fill-opacity:1" />
          </g>
          <g
             aria-label="10"
             transform="translate(-696.14462,658.99585)"
             style="font-style:normal;font-variant:normal;font-weight:normal;font-stretch:normal;font-size:13.33333302px;line-height:30px;font-family:'OCR A Extended';-inkscape-font-specification:'OCR A Extended';font-variant-ligatures:normal;font-variant-caps:normal;font-variant-numeric:normal;font-feature-settings:normal;text-align:start;letter-spacing:0px;word-spacing:0px;writing-mode:lr-tb;text-anchor:start;display:inline;fill:#ff0000;fill-opacity:1;stroke:none"
             id="text3151">
            <path
               d="m 115.4366,108.15919 h 1.67969 v -6.45182 h -1.65365 q -0.22786,0 -0.39062,-0.15625 -0.15625,-0.16276 -0.15625,-0.39063 0,-0.22786 0.15625,-0.38411 0.16276,-0.16276 0.39062,-0.16276 h 2.7474 v 7.54557 h 1.09375 v -2.27865 q 0,-0.22135 0.15625,-0.38411 0.16276,-0.16276 0.39062,-0.16276 0.22787,0 0.38412,0.16276 0.16276,0.15625 0.16276,0.38411 v 2.82552 q 0,0.22787 -0.16276,0.39063 -0.15625,0.15625 -0.38412,0.15625 h -4.41406 q -0.22786,0 -0.39063,-0.16276 -0.15625,-0.16927 -0.15625,-0.39714 0,-0.22135 0.15625,-0.3776 0.16277,-0.15625 0.39063,-0.15625 z"
               id="path4013"
               inkscape:connector-curvature="0"
               style="fill:#ff0000;fill-opacity:1" />
            <path
               d="m 122.94962,108.19825 v -6.54297 q 0,-0.42968 0.3125,-0.74218 0.3125,-0.3125 0.74219,-0.3125 h 3.41146 q 0.42317,0 0.72916,0.3125 0.3125,0.3125 0.3125,0.74218 v 6.54297 q 0,0.4362 -0.3125,0.7487 -0.30599,0.30599 -0.74218,0.30599 h -3.39844 q -0.44271,0 -0.7487,-0.30599 -0.30599,-0.3125 -0.30599,-0.7487 z m 4.42708,-0.0391 v -6.45182 h -3.33333 v 6.45182 z"
               id="path4015"
               inkscape:connector-curvature="0"
               style="fill:#ff0000;fill-opacity:1" />
          </g>
          <g
             aria-label="100"
             transform="translate(-696.14462,658.99585)"
             style="font-style:normal;font-variant:normal;font-weight:normal;font-stretch:normal;font-size:13.33333302px;line-height:30px;font-family:'OCR A Extended';-inkscape-font-specification:'OCR A Extended';font-variant-ligatures:normal;font-variant-caps:normal;font-variant-numeric:normal;font-feature-settings:normal;text-align:start;letter-spacing:0px;word-spacing:0px;writing-mode:lr-tb;text-anchor:start;display:inline;fill:#ff0000;fill-opacity:1;stroke:none"
             id="text3155">
            <path
               d="m 116.40097,131.94679 h 1.67969 v -6.45183 h -1.65365 q -0.22786,0 -0.39062,-0.15625 -0.15625,-0.16276 -0.15625,-0.39062 0,-0.22786 0.15625,-0.38411 0.16276,-0.16277 0.39062,-0.16277 h 2.7474 v 7.54558 h 1.09375 v -2.27865 q 0,-0.22135 0.15625,-0.38411 0.16276,-0.16276 0.39062,-0.16276 0.22787,0 0.38412,0.16276 0.16276,0.15625 0.16276,0.38411 v 2.82552 q 0,0.22787 -0.16276,0.39063 -0.15625,0.15625 -0.38412,0.15625 h -4.41406 q -0.22786,0 -0.39062,-0.16276 -0.15625,-0.16927 -0.15625,-0.39714 0,-0.22135 0.15625,-0.3776 0.16276,-0.15625 0.39062,-0.15625 z"
               id="path4018"
               inkscape:connector-curvature="0"
               style="fill:#ff0000;fill-opacity:1" />
            <path
               d="m 123.91399,131.98585 v -6.54297 q 0,-0.42969 0.3125,-0.74219 0.3125,-0.3125 0.74219,-0.3125 h 3.41146 q 0.42317,0 0.72916,0.3125 0.3125,0.3125 0.3125,0.74219 v 6.54297 q 0,0.4362 -0.3125,0.7487 -0.30599,0.30599 -0.74218,0.30599 h -3.39844 q -0.44271,0 -0.7487,-0.30599 -0.30599,-0.3125 -0.30599,-0.7487 z m 4.42708,-0.0391 v -6.45183 h -3.33333 v 6.45183 z"
               id="path4020"
               inkscape:connector-curvature="0"
               style="fill:#ff0000;fill-opacity:1" />
            <path
               d="m 131.96087,131.98585 v -6.54297 q 0,-0.42969 0.3125,-0.74219 0.3125,-0.3125 0.74218,-0.3125 h 3.41146 q 0.42318,0 0.72917,0.3125 0.3125,0.3125 0.3125,0.74219 v 6.54297 q 0,0.4362 -0.3125,0.7487 -0.30599,0.30599 -0.74219,0.30599 h -3.39844 q -0.4427,0 -0.74869,-0.30599 -0.30599,-0.3125 -0.30599,-0.7487 z m 4.42708,-0.0391 v -6.45183 h -3.33333 v 6.45183 z"
               id="path4022"
               inkscape:connector-curvature="0"
               style="fill:#ff0000;fill-opacity:1" />
          </g>
          <g
             aria-label="1000"
             transform="translate(-696.14462,658.99585)"
             style="font-style:normal;font-variant:normal;font-weight:normal;font-stretch:normal;font-size:13.33333302px;line-height:30px;font-family:'OCR A Extended';-inkscape-font-specification:'OCR A Extended';font-variant-ligatures:normal;font-variant-caps:normal;font-variant-numeric:normal;font-feature-settings:normal;text-align:start;letter-spacing:0px;word-spacing:0px;writing-mode:lr-tb;text-anchor:start;display:inline;fill:#ff0000;fill-opacity:1;stroke:none"
             id="text3159">
            <path
               d="m 116.40097,155.73445 h 1.67969 v -6.45183 h -1.65365 q -0.22786,0 -0.39062,-0.15625 -0.15625,-0.16276 -0.15625,-0.39062 0,-0.22787 0.15625,-0.38412 0.16276,-0.16276 0.39062,-0.16276 h 2.7474 v 7.54558 h 1.09375 v -2.27865 q 0,-0.22135 0.15625,-0.38411 0.16276,-0.16276 0.39062,-0.16276 0.22787,0 0.38412,0.16276 0.16276,0.15625 0.16276,0.38411 v 2.82552 q 0,0.22787 -0.16276,0.39063 -0.15625,0.15625 -0.38412,0.15625 h -4.41406 q -0.22786,0 -0.39062,-0.16276 -0.15625,-0.16928 -0.15625,-0.39714 0,-0.22135 0.15625,-0.3776 0.16276,-0.15625 0.39062,-0.15625 z"
               id="path4025"
               inkscape:connector-curvature="0"
               style="fill:#ff0000;fill-opacity:1" />
            <path
               d="m 123.91399,155.77351 v -6.54297 q 0,-0.42969 0.3125,-0.74219 0.3125,-0.3125 0.74219,-0.3125 h 3.41146 q 0.42317,0 0.72916,0.3125 0.3125,0.3125 0.3125,0.74219 v 6.54297 q 0,0.4362 -0.3125,0.7487 -0.30599,0.30599 -0.74218,0.30599 h -3.39844 q -0.44271,0 -0.7487,-0.30599 -0.30599,-0.3125 -0.30599,-0.7487 z m 4.42708,-0.0391 v -6.45183 h -3.33333 v 6.45183 z"
               id="path4027"
               inkscape:connector-curvature="0"
               style="fill:#ff0000;fill-opacity:1" />
            <path
               d="m 131.96087,155.77351 v -6.54297 q 0,-0.42969 0.3125,-0.74219 0.3125,-0.3125 0.74218,-0.3125 h 3.41146 q 0.42318,0 0.72917,0.3125 0.3125,0.3125 0.3125,0.74219 v 6.54297 q 0,0.4362 -0.3125,0.7487 -0.30599,0.30599 -0.74219,0.30599 h -3.39844 q -0.4427,0 -0.74869,-0.30599 -0.30599,-0.3125 -0.30599,-0.7487 z m 4.42708,-0.0391 v -6.45183 h -3.33333 v 6.45183 z"
               id="path4029"
               inkscape:connector-curvature="0"
               style="fill:#ff0000;fill-opacity:1" />
            <path
               d="m 140.00774,155.77351 v -6.54297 q 0,-0.42969 0.3125,-0.74219 0.3125,-0.3125 0.74219,-0.3125 h 3.41146 q 0.42317,0 0.72916,0.3125 0.3125,0.3125 0.3125,0.74219 v 6.54297 q 0,0.4362 -0.3125,0.7487 -0.30599,0.30599 -0.74218,0.30599 h -3.39844 q -0.44271,0 -0.7487,-0.30599 -0.30599,-0.3125 -0.30599,-0.7487 z m 4.42708,-0.0391 v -6.45183 h -3.33333 v 6.45183 z"
               id="path4031"
               inkscape:connector-curvature="0"
               style="fill:#ff0000;fill-opacity:1" />
          </g>
          <path
             sodipodi:nodetypes="ccccccccccccccccccccccccccccccccccccc"
             inkscape:connector-curvature="0"
             d="m -695.64382,658.46276 v 196.53543 h 200.31496 V 741.61237 h 52.53544 v -83.14961 z m 45.35433,175.22231 V 720.29924 h 52.91339 v 113.38583 z m 178.48269,-129.48163 2.93464,-0.38635 2.93464,0.38635 2.73465,1.13273 2.3483,1.80191 1.80191,2.3483 1.13273,2.73465 0.38635,2.93464 -0.38635,2.93464 -1.13273,2.73465 -1.80191,2.3483 -2.3483,1.80191 -2.73465,1.13273 -2.93464,0.38636 -2.93464,-0.38636 -2.73466,-1.13273 -2.34829,-1.80191 -1.80191,-2.3483 -1.13273,-2.73465 -0.38636,-2.93464 0.38636,-2.93464 1.13273,-2.73465 1.80191,-2.3483 2.34829,-1.80191 z"
             style="display:inline;fill:none;stroke:#0000ff;stroke-width:1.00157475;stroke-miterlimit:4;stroke-dasharray:none;stroke-opacity:1"
             id="path2469" />
        </g>
        <g
           aria-label="b2d"
           style="font-style:normal;font-variant:normal;font-weight:normal;font-stretch:normal;font-size:26.66666603px;line-height:30px;font-family:'OCR A Extended';-inkscape-font-specification:'OCR A Extended';font-variant-ligatures:normal;font-variant-caps:normal;font-variant-numeric:normal;font-feature-settings:normal;text-align:start;letter-spacing:0px;word-spacing:0px;writing-mode:lr-tb;text-anchor:start;fill:#ff0000;fill-opacity:1;stroke:none"
           id="text3992">
          <path
             d="m -677.69712,882.70447 v 5.14323 l 0.96354,-0.76823 q 0.91146,-0.75521 1.88802,-0.75521 h 2.00521 q 1.10677,0 1.96614,0.75521 l 1.04167,0.89844 q 0.42969,0.3776 0.70312,1.08072 0.28646,0.70313 0.28646,1.38021 v 4.42709 q 0,0.59895 -0.26041,1.26302 -0.26042,0.66406 -0.59896,0.97656 l -0.95052,0.89844 q -0.36459,0.35156 -1.04167,0.63802 -0.67708,0.27344 -1.14583,0.27344 h -1.875 q -1.36719,0 -2.98177,-1.52344 v 0.42969 q 0,0.45572 -0.32552,0.78125 -0.3125,0.3125 -0.76823,0.3125 -0.45573,0 -0.78125,-0.3125 -0.3125,-0.32553 -0.3125,-0.78125 v -15.11719 q 0,-0.45573 0.32552,-0.76823 0.32552,-0.32552 0.76823,-0.32552 0.45573,0 0.76823,0.32552 0.32552,0.3125 0.32552,0.76823 z m 4.6875,5.83333 h -1.51042 q -0.54688,0 -0.83333,0.2474 l -1.96615,1.67968 q -0.3776,0.33855 -0.3776,1.01563 v 2.47396 q 0,0.54687 0.42968,0.91146 l 1.75782,1.48437 q 0.3776,0.35156 0.79427,0.35156 h 1.78385 q 0.37761,0 0.65104,-0.23437 l 0.8724,-0.78125 q 0.35156,-0.26042 0.35156,-0.74219 v -4.60937 q 0,-0.54688 -0.35156,-0.83334 l -0.79427,-0.66406 q -0.36459,-0.29948 -0.80729,-0.29948 z"
             id="path4034"
             inkscape:connector-curvature="0"
             style="fill:#ff0000;fill-opacity:1" />
          <path
             d="m -653.92108,898.88936 h -9.94792 v -7.55208 q 0,-0.91146 0.63802,-1.5625 0.65104,-0.65104 1.54948,-0.65104 h 6.64063 v -5.32552 h -7.8125 q -0.46875,0 -0.78125,-0.3125 -0.3125,-0.32552 -0.3125,-0.78125 0,-0.45573 0.3125,-0.76823 0.3125,-0.32552 0.78125,-0.32552 h 7.8125 q 0.91145,0 1.5625,0.65104 0.65104,0.63802 0.65104,1.53646 v 5.32552 q 0,0.92448 -0.65104,1.57552 -0.65105,0.63802 -1.5625,0.63802 h -6.64063 v 5.36458 h 7.76042 q 0.44271,0 0.76823,0.32552 0.32552,0.3125 0.32552,0.76823 0,0.45573 -0.32552,0.78125 -0.32552,0.3125 -0.76823,0.3125 z"
             id="path4036"
             inkscape:connector-curvature="0"
             style="fill:#ff0000;fill-opacity:1" />
          <path
             d="m -638.94712,887.87374 v -5.16927 q 0,-0.45573 0.3125,-0.76823 0.3125,-0.32552 0.7552,-0.32552 0.45573,0 0.78125,0.32552 0.33855,0.3125 0.33855,0.76823 v 15.11719 q 0,0.45572 -0.32552,0.78125 -0.32553,0.3125 -0.76823,0.3125 -0.46875,0 -0.78125,-0.3125 -0.3125,-0.32553 -0.3125,-0.78125 v -0.48178 q -1.60157,1.57553 -2.9948,1.57553 h -1.86197 q -1.1198,0 -2.23959,-0.96355 l -0.91146,-0.76823 q -0.3125,-0.29947 -0.59895,-1.0026 -0.27344,-0.70312 -0.27344,-1.3151 v -4.45313 q 0,-0.74219 0.3125,-1.43229 0.3125,-0.70313 0.72917,-1.05469 l 0.89843,-0.76823 q 0.96354,-0.83333 2.26563,-0.83333 h 1.57552 q 1.28906,0 2.34375,0.91146 z m -3.17709,0.66406 h -1.52343 q -0.48178,0 -0.8724,0.35156 l -0.70313,0.61198 q -0.36458,0.32552 -0.36458,0.83334 v 4.63541 q 0,0.45573 0.42969,0.82032 l 0.71614,0.61197 q 0.33855,0.29948 0.71615,0.29948 h 1.78385 q 0.35157,0 0.83334,-0.40364 l 1.73177,-1.43229 q 0.42969,-0.37761 0.42969,-0.9375 v -2.3698 q 0,-0.79427 -0.45573,-1.17187 l -1.78386,-1.52344 q -0.35156,-0.32552 -0.9375,-0.32552 z"
             id="path4038"
             inkscape:connector-curvature="0"
             style="fill:#ff0000;fill-opacity:1" />
        </g>
      </g>
    </g>
  </g>
</svg>
